<svg xmlns="http://www.w3.org/2000/svg" width="346" height="94" viewBox="0 0 346 94">
<polygon points="27.63,28.89 11.64,28.85 11.64,20.17" fill="#326e8a" stroke="#326e8a" stroke-width="0.35"/>
<polygon points="11.64,28.85 10.32,30.33 10.32,21.65" fill="#4394b9" stroke="#4394b9" stroke-width="0.35"/>
<polygon points="11.64,28.85 10.32,21.65 11.64,20.17" fill="#4394b9" stroke="#4394b9" stroke-width="0.35"/>
<polygon points="153.08,50.63 27.63,28.89 11.64,28.85" fill="#326e8a" stroke="#326e8a" stroke-width="0.35"/>
<polygon points="153.08,50.63 11.64,28.85 10.32,30.33" fill="#326e8a" stroke="#326e8a" stroke-width="0.35"/>
<polygon points="42.96,29.65 27.63,28.89 27.63,20.21" fill="#326e8a" stroke="#326e8a" stroke-width="0.35"/>
<polygon points="27.63,28.89 11.64,20.17 27.63,20.21" fill="#326e8a" stroke="#326e8a" stroke-width="0.35"/>
<polygon points="153.08,50.63 42.96,29.65 27.63,28.89" fill="#326e8a" stroke="#326e8a" stroke-width="0.35"/>
<polygon points="58.13,30.59 42.96,29.65 42.96,20.97" fill="#326e8a" stroke="#326e8a" stroke-width="0.35"/>
<polygon points="42.96,29.65 27.63,20.21 42.96,20.97" fill="#326e8a" stroke="#326e8a" stroke-width="0.35"/>
<polygon points="153.08,50.63 58.13,30.59 42.96,29.65" fill="#326e8a" stroke="#326e8a" stroke-width="0.35"/>
<polygon points="10.32,30.33 22.62,34.48 22.62,25.81" fill="#4394b9" stroke="#4394b9" stroke-width="0.35"/>
<polygon points="10.32,30.33 22.62,25.81 10.32,21.65" fill="#4394b9" stroke="#4394b9" stroke-width="0.35"/>
<polygon points="153.08,50.63 10.32,30.33 22.62,34.48" fill="#326e8a" stroke="#326e8a" stroke-width="0.35"/>
<polygon points="56.39,20.19 52.49,20.05 52.49,11.83" fill="#414b55" stroke="#414b55" stroke-width="0.35"/>
<polygon points="52.49,20.05 48.94,20.73 48.94,12.51" fill="#45505b" stroke="#45505b" stroke-width="0.35"/>
<polygon points="52.49,20.05 48.94,12.51 52.49,11.83" fill="#45505b" stroke="#45505b" stroke-width="0.35"/>
<polygon points="185.99,46.82 56.39,20.19 52.49,20.05" fill="#414b55" stroke="#414b55" stroke-width="0.35"/>
<polygon points="185.99,46.82 52.49,20.05 48.94,20.73" fill="#414b55" stroke="#414b55" stroke-width="0.35"/>
<polygon points="13.89,19.87 11.54,19.52 11.54,17.78" fill="#8c8679" stroke="#8c8679" stroke-width="0.35"/>
<polygon points="11.54,19.52 10.82,20.32 10.82,18.59" fill="#bcb4a3" stroke="#bcb4a3" stroke-width="0.35"/>
<polygon points="11.54,19.52 10.82,18.59 11.54,17.78" fill="#bcb4a3" stroke="#bcb4a3" stroke-width="0.35"/>
<polygon points="12.35,20.10 13.89,19.87 11.54,19.52" fill="#8c8679" stroke="#8c8679" stroke-width="0.35"/>
<polygon points="12.35,20.10 11.54,19.52 10.82,20.32" fill="#8c8679" stroke="#8c8679" stroke-width="0.35"/>
<polygon points="153.08,41.95 27.63,20.21 11.64,20.17" fill="#54bbe9" stroke="#54bbe9" stroke-width="0.35"/>
<polygon points="153.08,41.95 11.64,20.17 10.32,21.65" fill="#54bbe9" stroke="#54bbe9" stroke-width="0.35"/>
<polygon points="56.39,20.19 52.49,11.83 56.39,11.97" fill="#414b55" stroke="#414b55" stroke-width="0.35"/>
<polygon points="327.36,60.30 56.39,20.19 56.39,11.97" fill="#414b55" stroke="#414b55" stroke-width="0.35"/>
<polygon points="185.99,46.82 327.36,60.30 56.39,20.19" fill="#414b55" stroke="#414b55" stroke-width="0.35"/>
<polygon points="73.21,31.64 58.13,30.59 58.13,21.92" fill="#326e8a" stroke="#326e8a" stroke-width="0.35"/>
<polygon points="58.13,30.59 42.96,20.97 58.13,21.92" fill="#326e8a" stroke="#326e8a" stroke-width="0.35"/>
<polygon points="153.08,50.63 73.21,31.64 58.13,30.59" fill="#326e8a" stroke="#326e8a" stroke-width="0.35"/>
<polygon points="153.08,41.95 42.96,20.97 27.63,20.21" fill="#54bbe9" stroke="#54bbe9" stroke-width="0.35"/>
<polygon points="13.89,19.87 11.54,17.78 13.89,18.13" fill="#8c8679" stroke="#8c8679" stroke-width="0.35"/>
<polygon points="12.35,18.36 13.89,18.13 11.54,17.78" fill="#eee4cd" stroke="#eee4cd" stroke-width="0.35"/>
<polygon points="12.35,18.36 11.54,17.78 10.82,18.59" fill="#eee4cd" stroke="#eee4cd" stroke-width="0.35"/>
<polygon points="13.17,20.67 13.89,19.87 13.89,18.13" fill="#8c8679" stroke="#8c8679" stroke-width="0.35"/>
<polygon points="12.35,20.10 13.17,20.67 13.89,19.87" fill="#8c8679" stroke="#8c8679" stroke-width="0.35"/>
<polygon points="12.35,20.10 10.82,20.32 13.17,20.67" fill="#8c8679" stroke="#8c8679" stroke-width="0.35"/>
<polygon points="48.94,20.73 46.69,22.03 46.69,13.81" fill="#525f6c" stroke="#525f6c" stroke-width="0.35"/>
<polygon points="48.94,20.73 46.69,13.81 48.94,12.51" fill="#525f6c" stroke="#525f6c" stroke-width="0.35"/>
<polygon points="185.99,46.82 48.94,20.73 46.69,22.03" fill="#414b55" stroke="#414b55" stroke-width="0.35"/>
<polygon points="13.17,20.67 13.89,18.13 13.17,18.94" fill="#8c8679" stroke="#8c8679" stroke-width="0.35"/>
<polygon points="12.35,18.36 13.17,18.94 13.89,18.13" fill="#eee4cd" stroke="#eee4cd" stroke-width="0.35"/>
<polygon points="10.82,20.32 13.17,20.67 13.17,18.94" fill="#afa797" stroke="#afa797" stroke-width="0.35"/>
<polygon points="10.82,20.32 13.17,18.94 10.82,18.59" fill="#afa797" stroke="#afa797" stroke-width="0.35"/>
<polygon points="153.08,41.95 58.13,21.92 42.96,20.97" fill="#54bbe9" stroke="#54bbe9" stroke-width="0.35"/>
<polygon points="13.07,20.79 10.72,20.44 10.72,18.70" fill="#8c8679" stroke="#8c8679" stroke-width="0.35"/>
<polygon points="10.72,20.44 10.00,21.24 10.00,19.50" fill="#bcb4a3" stroke="#bcb4a3" stroke-width="0.35"/>
<polygon points="10.72,20.44 10.00,19.50 10.72,18.70" fill="#bcb4a3" stroke="#bcb4a3" stroke-width="0.35"/>
<polygon points="11.53,21.01 13.07,20.79 10.72,20.44" fill="#8c8679" stroke="#8c8679" stroke-width="0.35"/>
<polygon points="11.53,21.01 10.72,20.44 10.00,21.24" fill="#8c8679" stroke="#8c8679" stroke-width="0.35"/>
<polygon points="12.35,18.36 10.82,18.59 13.17,18.94" fill="#eee4cd" stroke="#eee4cd" stroke-width="0.35"/>
<polygon points="88.22,32.76 73.21,31.64 73.21,22.96" fill="#326e8a" stroke="#326e8a" stroke-width="0.35"/>
<polygon points="73.21,31.64 58.13,21.92 73.21,22.96" fill="#326e8a" stroke="#326e8a" stroke-width="0.35"/>
<polygon points="153.08,50.63 88.22,32.76 73.21,31.64" fill="#326e8a" stroke="#326e8a" stroke-width="0.35"/>
<polygon points="13.07,20.79 10.72,18.70 13.07,19.05" fill="#8c8679" stroke="#8c8679" stroke-width="0.35"/>
<polygon points="11.53,19.28 13.07,19.05 10.72,18.70" fill="#eee4cd" stroke="#eee4cd" stroke-width="0.35"/>
<polygon points="11.53,19.28 10.72,18.70 10.00,19.50" fill="#eee4cd" stroke="#eee4cd" stroke-width="0.35"/>
<polygon points="12.35,21.59 13.07,20.79 13.07,19.05" fill="#8c8679" stroke="#8c8679" stroke-width="0.35"/>
<polygon points="11.53,21.01 12.35,21.59 13.07,20.79" fill="#8c8679" stroke="#8c8679" stroke-width="0.35"/>
<polygon points="11.53,21.01 10.00,21.24 12.35,21.59" fill="#8c8679" stroke="#8c8679" stroke-width="0.35"/>
<polygon points="153.08,41.95 10.32,21.65 22.62,25.81" fill="#54bbe9" stroke="#54bbe9" stroke-width="0.35"/>
<polygon points="185.99,38.60 56.39,11.97 52.49,11.83" fill="#6e7f91" stroke="#6e7f91" stroke-width="0.35"/>
<polygon points="185.99,38.60 52.49,11.83 48.94,12.51" fill="#6e7f91" stroke="#6e7f91" stroke-width="0.35"/>
<polygon points="12.35,21.59 13.07,19.05 12.35,19.85" fill="#8c8679" stroke="#8c8679" stroke-width="0.35"/>
<polygon points="11.53,19.28 12.35,19.85 13.07,19.05" fill="#eee4cd" stroke="#eee4cd" stroke-width="0.35"/>
<polygon points="327.36,60.30 56.39,11.97 327.36,52.08" fill="#414b55" stroke="#414b55" stroke-width="0.35"/>
<polygon points="185.99,38.60 327.36,52.08 56.39,11.97" fill="#6e7f91" stroke="#6e7f91" stroke-width="0.35"/>
<polygon points="10.00,21.24 12.35,21.59 12.35,19.85" fill="#afa797" stroke="#afa797" stroke-width="0.35"/>
<polygon points="10.00,21.24 12.35,19.85 10.00,19.50" fill="#afa797" stroke="#afa797" stroke-width="0.35"/>
<polygon points="153.08,41.95 73.21,22.96 58.13,21.92" fill="#54bbe9" stroke="#54bbe9" stroke-width="0.35"/>
<polygon points="11.53,19.28 10.00,19.50 12.35,19.85" fill="#eee4cd" stroke="#eee4cd" stroke-width="0.35"/>
<polygon points="46.69,22.03 40.11,29.40 40.11,21.17" fill="#576573" stroke="#576573" stroke-width="0.35"/>
<polygon points="46.69,22.03 40.11,21.17 46.69,13.81" fill="#576573" stroke="#576573" stroke-width="0.35"/>
<polygon points="185.99,46.82 46.69,22.03 40.11,29.40" fill="#414b55" stroke="#414b55" stroke-width="0.35"/>
<polygon points="185.99,38.60 48.94,12.51 46.69,13.81" fill="#6e7f91" stroke="#6e7f91" stroke-width="0.35"/>
<polygon points="103.19,33.94 88.22,32.76 88.22,24.08" fill="#326e8a" stroke="#326e8a" stroke-width="0.35"/>
<polygon points="88.22,32.76 73.21,22.96 88.22,24.08" fill="#326e8a" stroke="#326e8a" stroke-width="0.35"/>
<polygon points="153.08,50.63 103.19,33.94 88.22,32.76" fill="#326e8a" stroke="#326e8a" stroke-width="0.35"/>
<polygon points="59.97,12.87 56.27,12.74 56.27,10.00" fill="#55595e" stroke="#55595e" stroke-width="0.35"/>
<polygon points="56.27,12.74 52.89,13.38 52.89,10.64" fill="#5b5f65" stroke="#5b5f65" stroke-width="0.35"/>
<polygon points="56.27,12.74 52.89,10.64 56.27,10.00" fill="#5b5f65" stroke="#5b5f65" stroke-width="0.35"/>
<polygon points="187.98,38.90 59.97,12.87 56.27,12.74" fill="#55595e" stroke="#55595e" stroke-width="0.35"/>
<polygon points="187.98,38.90 56.27,12.74 52.89,13.38" fill="#55595e" stroke="#55595e" stroke-width="0.35"/>
<polygon points="59.97,12.87 56.27,10.00 59.97,10.13" fill="#55595e" stroke="#55595e" stroke-width="0.35"/>
<polygon points="327.17,52.43 59.97,12.87 59.97,10.13" fill="#55595e" stroke="#55595e" stroke-width="0.35"/>
<polygon points="187.98,38.90 327.17,52.43 59.97,12.87" fill="#55595e" stroke="#55595e" stroke-width="0.35"/>
<polygon points="153.08,41.95 88.22,24.08 73.21,22.96" fill="#54bbe9" stroke="#54bbe9" stroke-width="0.35"/>
<polygon points="187.98,36.15 59.97,10.13 56.27,10.00" fill="#90969f" stroke="#90969f" stroke-width="0.35"/>
<polygon points="187.98,36.15 56.27,10.00 52.89,10.64" fill="#90969f" stroke="#90969f" stroke-width="0.35"/>
<polygon points="52.89,13.38 50.76,14.62 50.76,11.88" fill="#6b7077" stroke="#6b7077" stroke-width="0.35"/>
<polygon points="52.89,13.38 50.76,11.88 52.89,10.64" fill="#6b7077" stroke="#6b7077" stroke-width="0.35"/>
<polygon points="187.98,38.90 52.89,13.38 50.76,14.62" fill="#55595e" stroke="#55595e" stroke-width="0.35"/>
<polygon points="327.17,52.43 59.97,10.13 327.17,49.69" fill="#55595e" stroke="#55595e" stroke-width="0.35"/>
<polygon points="187.98,36.15 327.17,49.69 59.97,10.13" fill="#90969f" stroke="#90969f" stroke-width="0.35"/>
<polygon points="103.19,33.94 88.22,24.08 103.19,25.26" fill="#326e8a" stroke="#326e8a" stroke-width="0.35"/>
<polygon points="330.56,67.60 103.19,33.94 103.19,25.26" fill="#326e8a" stroke="#326e8a" stroke-width="0.35"/>
<polygon points="153.08,50.63 330.56,67.60 103.19,33.94" fill="#326e8a" stroke="#326e8a" stroke-width="0.35"/>
<polygon points="185.99,38.60 46.69,13.81 40.11,21.17" fill="#6e7f91" stroke="#6e7f91" stroke-width="0.35"/>
<polygon points="187.98,36.15 52.89,10.64 50.76,11.88" fill="#90969f" stroke="#90969f" stroke-width="0.35"/>
<polygon points="153.08,41.95 103.19,25.26 88.22,24.08" fill="#54bbe9" stroke="#54bbe9" stroke-width="0.35"/>
<polygon points="22.62,34.48 35.57,37.91 35.57,29.23" fill="#4191b5" stroke="#4191b5" stroke-width="0.35"/>
<polygon points="22.62,34.48 35.57,29.23 22.62,25.81" fill="#4191b5" stroke="#4191b5" stroke-width="0.35"/>
<polygon points="153.08,50.63 22.62,34.48 35.57,37.91" fill="#326e8a" stroke="#326e8a" stroke-width="0.35"/>
<polygon points="50.76,14.62 44.50,21.62 44.50,18.87" fill="#72777e" stroke="#72777e" stroke-width="0.35"/>
<polygon points="50.76,14.62 44.50,18.87 50.76,11.88" fill="#72777e" stroke="#72777e" stroke-width="0.35"/>
<polygon points="187.98,38.90 50.76,14.62 44.50,21.62" fill="#55595e" stroke="#55595e" stroke-width="0.35"/>
<polygon points="187.98,36.15 50.76,11.88 44.50,18.87" fill="#90969f" stroke="#90969f" stroke-width="0.35"/>
<polygon points="330.56,67.60 103.19,25.26 330.56,58.92" fill="#326e8a" stroke="#326e8a" stroke-width="0.35"/>
<polygon points="153.08,41.95 330.56,58.92 103.19,25.26" fill="#54bbe9" stroke="#54bbe9" stroke-width="0.35"/>
<polygon points="153.08,41.95 22.62,25.81 35.57,29.23" fill="#54bbe9" stroke="#54bbe9" stroke-width="0.35"/>
<polygon points="35.57,37.91 48.68,41.15 48.68,32.47" fill="#4190b4" stroke="#4190b4" stroke-width="0.35"/>
<polygon points="35.57,37.91 48.68,32.47 35.57,29.23" fill="#4190b4" stroke="#4190b4" stroke-width="0.35"/>
<polygon points="153.08,50.63 35.57,37.91 48.68,41.15" fill="#326e8a" stroke="#326e8a" stroke-width="0.35"/>
<polygon points="153.08,41.95 35.57,29.23 48.68,32.47" fill="#54bbe9" stroke="#54bbe9" stroke-width="0.35"/>
<polygon points="40.11,29.40 39.76,30.98 39.76,22.76" fill="#5b6877" stroke="#5b6877" stroke-width="0.35"/>
<polygon points="40.11,29.40 39.76,22.76 40.11,21.17" fill="#5b6877" stroke="#5b6877" stroke-width="0.35"/>
<polygon points="185.99,46.82 40.11,29.40 39.76,30.98" fill="#414b55" stroke="#414b55" stroke-width="0.35"/>
<polygon points="48.68,41.15 61.89,44.29 61.89,35.61" fill="#408fb3" stroke="#408fb3" stroke-width="0.35"/>
<polygon points="48.68,41.15 61.89,35.61 48.68,32.47" fill="#408fb3" stroke="#408fb3" stroke-width="0.35"/>
<polygon points="153.08,50.63 48.68,41.15 61.89,44.29" fill="#326e8a" stroke="#326e8a" stroke-width="0.35"/>
<polygon points="39.76,30.98 41.42,32.43 41.42,24.20" fill="#5c6a79" stroke="#5c6a79" stroke-width="0.35"/>
<polygon points="39.76,30.98 41.42,24.20 39.76,22.76" fill="#5c6a79" stroke="#5c6a79" stroke-width="0.35"/>
<polygon points="185.99,46.82 39.76,30.98 41.42,32.43" fill="#414b55" stroke="#414b55" stroke-width="0.35"/>
<polygon points="185.99,38.60 40.11,21.17 39.76,22.76" fill="#6e7f91" stroke="#6e7f91" stroke-width="0.35"/>
<polygon points="44.50,21.62 44.18,23.12 44.18,20.38" fill="#767c83" stroke="#767c83" stroke-width="0.35"/>
<polygon points="44.50,21.62 44.18,20.38 44.50,18.87" fill="#767c83" stroke="#767c83" stroke-width="0.35"/>
<polygon points="187.98,38.90 44.50,21.62 44.18,23.12" fill="#55595e" stroke="#55595e" stroke-width="0.35"/>
<polygon points="89.80,18.46 88.14,18.40 88.14,13.37" fill="#55595e" stroke="#55595e" stroke-width="0.35"/>
<polygon points="88.14,18.40 86.63,18.68 86.63,13.66" fill="#5b5f65" stroke="#5b5f65" stroke-width="0.35"/>
<polygon points="88.14,18.40 86.63,13.66 88.14,13.37" fill="#5b5f65" stroke="#5b5f65" stroke-width="0.35"/>
<polygon points="205.24,38.71 89.80,18.46 88.14,18.40" fill="#55595e" stroke="#55595e" stroke-width="0.35"/>
<polygon points="205.24,38.71 88.14,18.40 86.63,18.68" fill="#55595e" stroke="#55595e" stroke-width="0.35"/>
<polygon points="89.80,18.46 88.14,13.37 89.80,13.43" fill="#55595e" stroke="#55595e" stroke-width="0.35"/>
<polygon points="325.68,53.37 89.80,18.46 89.80,13.43" fill="#55595e" stroke="#55595e" stroke-width="0.35"/>
<polygon points="205.24,38.71 325.68,53.37 89.80,18.46" fill="#55595e" stroke="#55595e" stroke-width="0.35"/>
<polygon points="86.63,18.68 85.68,19.24 85.68,14.21" fill="#6b7077" stroke="#6b7077" stroke-width="0.35"/>
<polygon points="86.63,18.68 85.68,14.21 86.63,13.66" fill="#6b7077" stroke="#6b7077" stroke-width="0.35"/>
<polygon points="205.24,38.71 86.63,18.68 85.68,19.24" fill="#55595e" stroke="#55595e" stroke-width="0.35"/>
<polygon points="187.98,36.15 44.50,18.87 44.18,20.38" fill="#90969f" stroke="#90969f" stroke-width="0.35"/>
<polygon points="85.68,19.24 82.88,22.37 82.88,17.34" fill="#72777e" stroke="#72777e" stroke-width="0.35"/>
<polygon points="85.68,19.24 82.88,17.34 85.68,14.21" fill="#72777e" stroke="#72777e" stroke-width="0.35"/>
<polygon points="205.24,38.71 85.68,19.24 82.88,22.37" fill="#55595e" stroke="#55595e" stroke-width="0.35"/>
<polygon points="41.42,32.43 44.63,33.34 44.63,25.12" fill="#566371" stroke="#566371" stroke-width="0.35"/>
<polygon points="41.42,32.43 44.63,25.12 41.42,24.20" fill="#566371" stroke="#566371" stroke-width="0.35"/>
<polygon points="185.99,46.82 41.42,32.43 44.63,33.34" fill="#414b55" stroke="#414b55" stroke-width="0.35"/>
<polygon points="153.08,41.95 48.68,32.47 61.89,35.61" fill="#54bbe9" stroke="#54bbe9" stroke-width="0.35"/>
<polygon points="205.24,33.68 89.80,13.43 88.14,13.37" fill="#90969f" stroke="#90969f" stroke-width="0.35"/>
<polygon points="205.24,33.68 88.14,13.37 86.63,13.66" fill="#90969f" stroke="#90969f" stroke-width="0.35"/>
<polygon points="325.68,53.37 89.80,13.43 325.68,48.35" fill="#55595e" stroke="#55595e" stroke-width="0.35"/>
<polygon points="205.24,33.68 325.68,48.35 89.80,13.43" fill="#90969f" stroke="#90969f" stroke-width="0.35"/>
<polygon points="185.99,38.60 39.76,22.76 41.42,24.20" fill="#6e7f91" stroke="#6e7f91" stroke-width="0.35"/>
<polygon points="205.24,33.68 86.63,13.66 85.68,14.21" fill="#90969f" stroke="#90969f" stroke-width="0.35"/>
<polygon points="44.18,23.12 45.75,24.49 45.75,21.75" fill="#787d85" stroke="#787d85" stroke-width="0.35"/>
<polygon points="44.18,23.12 45.75,21.75 44.18,20.38" fill="#787d85" stroke="#787d85" stroke-width="0.35"/>
<polygon points="187.98,38.90 44.18,23.12 45.75,24.49" fill="#55595e" stroke="#55595e" stroke-width="0.35"/>
<polygon points="44.63,33.34 315.59,73.45 315.59,65.23" fill="#515d6a" stroke="#515d6a" stroke-width="0.35"/>
<polygon points="44.63,33.34 315.59,65.23 44.63,25.12" fill="#515d6a" stroke="#515d6a" stroke-width="0.35"/>
<polygon points="185.99,46.82 44.63,33.34 315.59,73.45" fill="#414b55" stroke="#414b55" stroke-width="0.35"/>
<polygon points="205.24,33.68 85.68,14.21 82.88,17.34" fill="#90969f" stroke="#90969f" stroke-width="0.35"/>
<polygon points="187.98,36.15 44.18,20.38 45.75,21.75" fill="#90969f" stroke="#90969f" stroke-width="0.35"/>
<polygon points="61.89,44.29 75.16,47.36 75.16,38.68" fill="#408fb3" stroke="#408fb3" stroke-width="0.35"/>
<polygon points="61.89,44.29 75.16,38.68 61.89,35.61" fill="#408fb3" stroke="#408fb3" stroke-width="0.35"/>
<polygon points="153.08,50.63 61.89,44.29 75.16,47.36" fill="#326e8a" stroke="#326e8a" stroke-width="0.35"/>
<polygon points="185.99,38.60 41.42,24.20 44.63,25.12" fill="#6e7f91" stroke="#6e7f91" stroke-width="0.35"/>
<polygon points="45.75,24.49 48.80,25.36 48.80,22.62" fill="#70757d" stroke="#70757d" stroke-width="0.35"/>
<polygon points="45.75,24.49 48.80,22.62 45.75,21.75" fill="#70757d" stroke="#70757d" stroke-width="0.35"/>
<polygon points="187.98,38.90 45.75,24.49 48.80,25.36" fill="#55595e" stroke="#55595e" stroke-width="0.35"/>
<polygon points="187.98,36.15 45.75,21.75 48.80,22.62" fill="#90969f" stroke="#90969f" stroke-width="0.35"/>
<polygon points="185.99,38.60 44.63,25.12 315.59,65.23" fill="#6e7f91" stroke="#6e7f91" stroke-width="0.35"/>
<polygon points="48.80,25.36 315.99,64.92 315.99,62.18" fill="#696e75" stroke="#696e75" stroke-width="0.35"/>
<polygon points="48.80,25.36 315.99,62.18 48.80,22.62" fill="#696e75" stroke="#696e75" stroke-width="0.35"/>
<polygon points="187.98,38.90 48.80,25.36 315.99,64.92" fill="#55595e" stroke="#55595e" stroke-width="0.35"/>
<polygon points="82.88,22.37 82.73,23.04 82.73,18.02" fill="#767c83" stroke="#767c83" stroke-width="0.35"/>
<polygon points="82.88,22.37 82.73,18.02 82.88,17.34" fill="#767c83" stroke="#767c83" stroke-width="0.35"/>
<polygon points="205.24,38.71 82.88,22.37 82.73,23.04" fill="#55595e" stroke="#55595e" stroke-width="0.35"/>
<polygon points="153.08,41.95 61.89,35.61 75.16,38.68" fill="#54bbe9" stroke="#54bbe9" stroke-width="0.35"/>
<polygon points="187.98,36.15 48.80,22.62 315.99,62.18" fill="#90969f" stroke="#90969f" stroke-width="0.35"/>
<polygon points="82.73,23.04 83.44,23.66 83.44,18.63" fill="#787d85" stroke="#787d85" stroke-width="0.35"/>
<polygon points="82.73,23.04 83.44,18.63 82.73,18.02" fill="#787d85" stroke="#787d85" stroke-width="0.35"/>
<polygon points="205.24,38.71 82.73,23.04 83.44,23.66" fill="#55595e" stroke="#55595e" stroke-width="0.35"/>
<polygon points="205.24,33.68 82.88,17.34 82.73,18.02" fill="#90969f" stroke="#90969f" stroke-width="0.35"/>
<polygon points="83.44,23.66 84.80,24.04 84.80,19.02" fill="#70757d" stroke="#70757d" stroke-width="0.35"/>
<polygon points="83.44,23.66 84.80,19.02 83.44,18.63" fill="#70757d" stroke="#70757d" stroke-width="0.35"/>
<polygon points="205.24,38.71 83.44,23.66 84.80,24.04" fill="#55595e" stroke="#55595e" stroke-width="0.35"/>
<polygon points="75.16,47.36 88.48,50.37 88.48,41.69" fill="#408fb2" stroke="#408fb2" stroke-width="0.35"/>
<polygon points="75.16,47.36 88.48,41.69 75.16,38.68" fill="#408fb2" stroke="#408fb2" stroke-width="0.35"/>
<polygon points="153.08,50.63 75.16,47.36 88.48,50.37" fill="#326e8a" stroke="#326e8a" stroke-width="0.35"/>
<polygon points="205.24,33.68 82.73,18.02 83.44,18.63" fill="#90969f" stroke="#90969f" stroke-width="0.35"/>
<polygon points="84.80,24.04 320.68,58.96 320.68,53.94" fill="#696e75" stroke="#696e75" stroke-width="0.35"/>
<polygon points="84.80,24.04 320.68,53.94 84.80,19.02" fill="#696e75" stroke="#696e75" stroke-width="0.35"/>
<polygon points="205.24,38.71 84.80,24.04 320.68,58.96" fill="#55595e" stroke="#55595e" stroke-width="0.35"/>
<polygon points="205.24,33.68 83.44,18.63 84.80,19.02" fill="#90969f" stroke="#90969f" stroke-width="0.35"/>
<polygon points="205.24,33.68 84.80,19.02 320.68,53.94" fill="#90969f" stroke="#90969f" stroke-width="0.35"/>
<polygon points="153.08,41.95 75.16,38.68 88.48,41.69" fill="#54bbe9" stroke="#54bbe9" stroke-width="0.35"/>
<polygon points="88.48,50.37 315.85,84.03 315.85,75.35" fill="#3e89ab" stroke="#3e89ab" stroke-width="0.35"/>
<polygon points="88.48,50.37 315.85,75.35 88.48,41.69" fill="#3e89ab" stroke="#3e89ab" stroke-width="0.35"/>
<polygon points="153.08,50.63 88.48,50.37 315.85,84.03" fill="#326e8a" stroke="#326e8a" stroke-width="0.35"/>
<polygon points="153.08,50.63 315.85,84.03 319.84,84.17" fill="#326e8a" stroke="#326e8a" stroke-width="0.35"/>
<polygon points="153.08,50.63 319.84,84.17 323.47,83.48" fill="#326e8a" stroke="#326e8a" stroke-width="0.35"/>
<polygon points="153.08,50.63 323.47,83.48 325.77,82.15" fill="#326e8a" stroke="#326e8a" stroke-width="0.35"/>
<polygon points="153.08,50.63 325.77,82.15 335.18,71.63" fill="#326e8a" stroke="#326e8a" stroke-width="0.35"/>
<polygon points="153.08,50.63 335.18,71.63 335.53,70.01" fill="#326e8a" stroke="#326e8a" stroke-width="0.35"/>
<polygon points="153.08,50.63 335.53,70.01 333.84,68.53" fill="#326e8a" stroke="#326e8a" stroke-width="0.35"/>
<polygon points="153.08,50.63 333.84,68.53 330.56,67.60" fill="#326e8a" stroke="#326e8a" stroke-width="0.35"/>
<polygon points="153.08,41.95 88.48,41.69 315.85,75.35" fill="#54bbe9" stroke="#54bbe9" stroke-width="0.35"/>
<polygon points="153.08,41.95 315.85,75.35 319.84,75.49" fill="#54bbe9" stroke="#54bbe9" stroke-width="0.35"/>
<polygon points="153.08,41.95 319.84,75.49 323.47,74.81" fill="#54bbe9" stroke="#54bbe9" stroke-width="0.35"/>
<polygon points="153.08,41.95 323.47,74.81 325.77,73.47" fill="#54bbe9" stroke="#54bbe9" stroke-width="0.35"/>
<polygon points="153.08,41.95 325.77,73.47 335.18,62.95" fill="#54bbe9" stroke="#54bbe9" stroke-width="0.35"/>
<polygon points="153.08,41.95 335.18,62.95 335.53,61.33" fill="#54bbe9" stroke="#54bbe9" stroke-width="0.35"/>
<polygon points="153.08,41.95 335.53,61.33 333.84,59.85" fill="#54bbe9" stroke="#54bbe9" stroke-width="0.35"/>
<polygon points="153.08,41.95 333.84,59.85 330.56,58.92" fill="#54bbe9" stroke="#54bbe9" stroke-width="0.35"/>
<polygon points="185.99,46.82 315.59,73.45 319.49,73.59" fill="#414b55" stroke="#414b55" stroke-width="0.35"/>
<polygon points="185.99,46.82 319.49,73.59 323.04,72.92" fill="#414b55" stroke="#414b55" stroke-width="0.35"/>
<polygon points="185.99,46.82 323.04,72.92 325.29,71.61" fill="#414b55" stroke="#414b55" stroke-width="0.35"/>
<polygon points="185.99,46.82 325.29,71.61 331.88,64.25" fill="#414b55" stroke="#414b55" stroke-width="0.35"/>
<polygon points="185.99,46.82 331.88,64.25 332.22,62.66" fill="#414b55" stroke="#414b55" stroke-width="0.35"/>
<polygon points="185.99,46.82 332.22,62.66 330.57,61.22" fill="#414b55" stroke="#414b55" stroke-width="0.35"/>
<polygon points="185.99,46.82 330.57,61.22 327.36,60.30" fill="#414b55" stroke="#414b55" stroke-width="0.35"/>
<polygon points="185.99,38.60 315.59,65.23 319.49,65.37" fill="#6e7f91" stroke="#6e7f91" stroke-width="0.35"/>
<polygon points="185.99,38.60 319.49,65.37 323.04,64.70" fill="#6e7f91" stroke="#6e7f91" stroke-width="0.35"/>
<polygon points="185.99,38.60 323.04,64.70 325.29,63.39" fill="#6e7f91" stroke="#6e7f91" stroke-width="0.35"/>
<polygon points="185.99,38.60 325.29,63.39 331.88,56.03" fill="#6e7f91" stroke="#6e7f91" stroke-width="0.35"/>
<polygon points="185.99,38.60 331.88,56.03 332.22,54.44" fill="#6e7f91" stroke="#6e7f91" stroke-width="0.35"/>
<polygon points="185.99,38.60 332.22,54.44 330.57,53.00" fill="#6e7f91" stroke="#6e7f91" stroke-width="0.35"/>
<polygon points="185.99,38.60 330.57,53.00 327.36,52.08" fill="#6e7f91" stroke="#6e7f91" stroke-width="0.35"/>
<polygon points="187.98,38.90 315.99,64.92 319.70,65.05" fill="#55595e" stroke="#55595e" stroke-width="0.35"/>
<polygon points="187.98,38.90 319.70,65.05 323.08,64.41" fill="#55595e" stroke="#55595e" stroke-width="0.35"/>
<polygon points="187.98,38.90 323.08,64.41 325.21,63.17" fill="#55595e" stroke="#55595e" stroke-width="0.35"/>
<polygon points="187.98,38.90 325.21,63.17 331.47,56.18" fill="#55595e" stroke="#55595e" stroke-width="0.35"/>
<polygon points="187.98,38.90 331.47,56.18 331.79,54.67" fill="#55595e" stroke="#55595e" stroke-width="0.35"/>
<polygon points="187.98,38.90 331.79,54.67 330.22,53.30" fill="#55595e" stroke="#55595e" stroke-width="0.35"/>
<polygon points="187.98,38.90 330.22,53.30 327.17,52.43" fill="#55595e" stroke="#55595e" stroke-width="0.35"/>
<polygon points="187.98,36.15 315.99,62.18 319.70,62.31" fill="#90969f" stroke="#90969f" stroke-width="0.35"/>
<polygon points="187.98,36.15 319.70,62.31 323.08,61.67" fill="#90969f" stroke="#90969f" stroke-width="0.35"/>
<polygon points="187.98,36.15 323.08,61.67 325.21,60.43" fill="#90969f" stroke="#90969f" stroke-width="0.35"/>
<polygon points="187.98,36.15 325.21,60.43 331.47,53.44" fill="#90969f" stroke="#90969f" stroke-width="0.35"/>
<polygon points="187.98,36.15 331.47,53.44 331.79,51.93" fill="#90969f" stroke="#90969f" stroke-width="0.35"/>
<polygon points="187.98,36.15 331.79,51.93 330.22,50.56" fill="#90969f" stroke="#90969f" stroke-width="0.35"/>
<polygon points="187.98,36.15 330.22,50.56 327.17,49.69" fill="#90969f" stroke="#90969f" stroke-width="0.35"/>
<polygon points="205.24,38.71 320.68,58.96 322.34,59.02" fill="#55595e" stroke="#55595e" stroke-width="0.35"/>
<polygon points="205.24,38.71 322.34,59.02 323.85,58.74" fill="#55595e" stroke="#55595e" stroke-width="0.35"/>
<polygon points="205.24,38.71 323.85,58.74 324.80,58.18" fill="#55595e" stroke="#55595e" stroke-width="0.35"/>
<polygon points="205.24,38.71 324.80,58.18 327.60,55.05" fill="#55595e" stroke="#55595e" stroke-width="0.35"/>
<polygon points="205.24,38.71 327.60,55.05 327.75,54.38" fill="#55595e" stroke="#55595e" stroke-width="0.35"/>
<polygon points="205.24,38.71 327.75,54.38 327.04,53.76" fill="#55595e" stroke="#55595e" stroke-width="0.35"/>
<polygon points="205.24,38.71 327.04,53.76 325.68,53.37" fill="#55595e" stroke="#55595e" stroke-width="0.35"/>
<polygon points="205.24,33.68 320.68,53.94 322.34,54.00" fill="#90969f" stroke="#90969f" stroke-width="0.35"/>
<polygon points="205.24,33.68 322.34,54.00 323.85,53.71" fill="#90969f" stroke="#90969f" stroke-width="0.35"/>
<polygon points="205.24,33.68 323.85,53.71 324.80,53.16" fill="#90969f" stroke="#90969f" stroke-width="0.35"/>
<polygon points="205.24,33.68 324.80,53.16 327.60,50.03" fill="#90969f" stroke="#90969f" stroke-width="0.35"/>
<polygon points="205.24,33.68 327.60,50.03 327.75,49.35" fill="#90969f" stroke="#90969f" stroke-width="0.35"/>
<polygon points="205.24,33.68 327.75,49.35 327.04,48.74" fill="#90969f" stroke="#90969f" stroke-width="0.35"/>
<polygon points="205.24,33.68 327.04,48.74 325.68,48.35" fill="#90969f" stroke="#90969f" stroke-width="0.35"/>
<polygon points="333.84,68.53 330.56,67.60 330.56,58.92" fill="#326e8a" stroke="#326e8a" stroke-width="0.35"/>
<polygon points="335.53,70.01 333.84,68.53 333.84,59.85" fill="#326e8a" stroke="#326e8a" stroke-width="0.35"/>
<polygon points="333.84,68.53 330.56,58.92 333.84,59.85" fill="#326e8a" stroke="#326e8a" stroke-width="0.35"/>
<polygon points="335.18,71.63 335.53,70.01 335.53,61.33" fill="#326e8a" stroke="#326e8a" stroke-width="0.35"/>
<polygon points="335.53,70.01 333.84,59.85 335.53,61.33" fill="#326e8a" stroke="#326e8a" stroke-width="0.35"/>
<polygon points="330.57,61.22 327.36,60.30 327.36,52.08" fill="#414b55" stroke="#414b55" stroke-width="0.35"/>
<polygon points="332.22,62.66 330.57,61.22 330.57,53.00" fill="#414b55" stroke="#414b55" stroke-width="0.35"/>
<polygon points="330.57,61.22 327.36,52.08 330.57,53.00" fill="#414b55" stroke="#414b55" stroke-width="0.35"/>
<polygon points="325.77,82.15 335.18,71.63 335.18,62.95" fill="#326e8a" stroke="#326e8a" stroke-width="0.35"/>
<polygon points="335.18,71.63 335.53,61.33 335.18,62.95" fill="#326e8a" stroke="#326e8a" stroke-width="0.35"/>
<polygon points="330.22,53.30 327.17,52.43 327.17,49.69" fill="#55595e" stroke="#55595e" stroke-width="0.35"/>
<polygon points="331.88,64.25 332.22,62.66 332.22,54.44" fill="#414b55" stroke="#414b55" stroke-width="0.35"/>
<polygon points="332.22,62.66 330.57,53.00 332.22,54.44" fill="#414b55" stroke="#414b55" stroke-width="0.35"/>
<polygon points="330.22,53.30 327.17,49.69 330.22,50.56" fill="#55595e" stroke="#55595e" stroke-width="0.35"/>
<polygon points="325.77,82.15 335.18,62.95 325.77,73.47" fill="#326e8a" stroke="#326e8a" stroke-width="0.35"/>
<polygon points="331.79,54.67 330.22,53.30 330.22,50.56" fill="#55595e" stroke="#55595e" stroke-width="0.35"/>
<polygon points="331.79,54.67 330.22,50.56 331.79,51.93" fill="#55595e" stroke="#55595e" stroke-width="0.35"/>
<polygon points="334.36,63.64 332.01,63.29 332.01,61.56" fill="#8c1c12" stroke="#8c1c12" stroke-width="0.35"/>
<polygon points="332.01,63.29 331.29,64.10 331.29,62.36" fill="#bc2618" stroke="#bc2618" stroke-width="0.35"/>
<polygon points="332.01,63.29 331.29,62.36 332.01,61.56" fill="#bc2618" stroke="#bc2618" stroke-width="0.35"/>
<polygon points="332.82,63.87 334.36,63.64 332.01,63.29" fill="#8c1c12" stroke="#8c1c12" stroke-width="0.35"/>
<polygon points="332.82,63.87 332.01,63.29 331.29,64.10" fill="#8c1c12" stroke="#8c1c12" stroke-width="0.35"/>
<polygon points="334.36,63.64 332.01,61.56 334.36,61.91" fill="#8c1c12" stroke="#8c1c12" stroke-width="0.35"/>
<polygon points="332.82,62.13 334.36,61.91 332.01,61.56" fill="#ee301e" stroke="#ee301e" stroke-width="0.35"/>
<polygon points="332.82,62.13 332.01,61.56 331.29,62.36" fill="#ee301e" stroke="#ee301e" stroke-width="0.35"/>
<polygon points="333.64,64.44 334.36,63.64 334.36,61.91" fill="#8c1c12" stroke="#8c1c12" stroke-width="0.35"/>
<polygon points="332.82,63.87 333.64,64.44 334.36,63.64" fill="#8c1c12" stroke="#8c1c12" stroke-width="0.35"/>
<polygon points="325.29,71.61 331.88,64.25 331.88,56.03" fill="#414b55" stroke="#414b55" stroke-width="0.35"/>
<polygon points="331.88,64.25 332.22,54.44 331.88,56.03" fill="#414b55" stroke="#414b55" stroke-width="0.35"/>
<polygon points="332.82,63.87 331.29,64.10 333.64,64.44" fill="#8c1c12" stroke="#8c1c12" stroke-width="0.35"/>
<polygon points="331.47,56.18 331.79,54.67 331.79,51.93" fill="#55595e" stroke="#55595e" stroke-width="0.35"/>
<polygon points="333.64,64.44 334.36,61.91 333.64,62.71" fill="#8c1c12" stroke="#8c1c12" stroke-width="0.35"/>
<polygon points="332.82,62.13 333.64,62.71 334.36,61.91" fill="#ee301e" stroke="#ee301e" stroke-width="0.35"/>
<polygon points="331.29,64.10 333.64,64.44 333.64,62.71" fill="#af2316" stroke="#af2316" stroke-width="0.35"/>
<polygon points="331.29,64.10 333.64,62.71 331.29,62.36" fill="#af2316" stroke="#af2316" stroke-width="0.35"/>
<polygon points="332.82,62.13 331.29,62.36 333.64,62.71" fill="#ee301e" stroke="#ee301e" stroke-width="0.35"/>
<polygon points="331.47,56.18 331.79,51.93 331.47,53.44" fill="#55595e" stroke="#55595e" stroke-width="0.35"/>
<polygon points="325.29,71.61 331.88,56.03 325.29,63.39" fill="#414b55" stroke="#414b55" stroke-width="0.35"/>
<polygon points="325.21,63.17 331.47,56.18 331.47,53.44" fill="#55595e" stroke="#55595e" stroke-width="0.35"/>
<polygon points="327.04,53.76 325.68,53.37 325.68,48.35" fill="#55595e" stroke="#55595e" stroke-width="0.35"/>
<polygon points="325.21,63.17 331.47,53.44 325.21,60.43" fill="#55595e" stroke="#55595e" stroke-width="0.35"/>
<polygon points="327.75,54.38 327.04,53.76 327.04,48.74" fill="#55595e" stroke="#55595e" stroke-width="0.35"/>
<polygon points="327.04,53.76 325.68,48.35 327.04,48.74" fill="#55595e" stroke="#55595e" stroke-width="0.35"/>
<polygon points="327.60,55.05 327.75,54.38 327.75,49.35" fill="#55595e" stroke="#55595e" stroke-width="0.35"/>
<polygon points="327.75,54.38 327.04,48.74 327.75,49.35" fill="#55595e" stroke="#55595e" stroke-width="0.35"/>
<polygon points="324.80,58.18 327.60,55.05 327.60,50.03" fill="#55595e" stroke="#55595e" stroke-width="0.35"/>
<polygon points="327.60,55.05 327.75,49.35 327.60,50.03" fill="#55595e" stroke="#55595e" stroke-width="0.35"/>
<polygon points="324.80,58.18 327.60,50.03 324.80,53.16" fill="#55595e" stroke="#55595e" stroke-width="0.35"/>
<polygon points="327.74,71.04 325.39,70.69 325.39,68.95" fill="#8c1c12" stroke="#8c1c12" stroke-width="0.35"/>
<polygon points="325.39,70.69 324.67,71.49 324.67,69.76" fill="#bc2618" stroke="#bc2618" stroke-width="0.35"/>
<polygon points="325.39,70.69 324.67,69.76 325.39,68.95" fill="#bc2618" stroke="#bc2618" stroke-width="0.35"/>
<polygon points="326.20,71.26 327.74,71.04 325.39,70.69" fill="#8c1c12" stroke="#8c1c12" stroke-width="0.35"/>
<polygon points="326.20,71.26 325.39,70.69 324.67,71.49" fill="#8c1c12" stroke="#8c1c12" stroke-width="0.35"/>
<polygon points="323.85,58.74 324.80,58.18 324.80,53.16" fill="#55595e" stroke="#55595e" stroke-width="0.35"/>
<polygon points="323.04,72.92 325.29,71.61 325.29,63.39" fill="#414b55" stroke="#414b55" stroke-width="0.35"/>
<polygon points="327.74,71.04 325.39,68.95 327.74,69.30" fill="#8c1c12" stroke="#8c1c12" stroke-width="0.35"/>
<polygon points="326.20,69.53 327.74,69.30 325.39,68.95" fill="#ee301e" stroke="#ee301e" stroke-width="0.35"/>
<polygon points="326.20,69.53 325.39,68.95 324.67,69.76" fill="#ee301e" stroke="#ee301e" stroke-width="0.35"/>
<polygon points="327.02,71.84 327.74,71.04 327.74,69.30" fill="#8c1c12" stroke="#8c1c12" stroke-width="0.35"/>
<polygon points="326.20,71.26 327.02,71.84 327.74,71.04" fill="#8c1c12" stroke="#8c1c12" stroke-width="0.35"/>
<polygon points="323.47,83.48 325.77,82.15 325.77,73.47" fill="#326e8a" stroke="#326e8a" stroke-width="0.35"/>
<polygon points="326.20,71.26 324.67,71.49 327.02,71.84" fill="#8c1c12" stroke="#8c1c12" stroke-width="0.35"/>
<polygon points="322.34,59.02 323.85,58.74 323.85,53.71" fill="#55595e" stroke="#55595e" stroke-width="0.35"/>
<polygon points="323.85,58.74 324.80,53.16 323.85,53.71" fill="#55595e" stroke="#55595e" stroke-width="0.35"/>
<polygon points="327.02,71.84 327.74,69.30 327.02,70.10" fill="#8c1c12" stroke="#8c1c12" stroke-width="0.35"/>
<polygon points="326.20,69.53 327.02,70.10 327.74,69.30" fill="#ee301e" stroke="#ee301e" stroke-width="0.35"/>
<polygon points="324.67,71.49 327.02,71.84 327.02,70.10" fill="#af2316" stroke="#af2316" stroke-width="0.35"/>
<polygon points="324.67,71.49 327.02,70.10 324.67,69.76" fill="#af2316" stroke="#af2316" stroke-width="0.35"/>
<polygon points="320.68,58.96 322.34,59.02 322.34,54.00" fill="#61666c" stroke="#61666c" stroke-width="0.35"/>
<polygon points="320.68,58.96 322.34,54.00 320.68,53.94" fill="#61666c" stroke="#61666c" stroke-width="0.35"/>
<polygon points="322.34,59.02 323.85,53.71 322.34,54.00" fill="#55595e" stroke="#55595e" stroke-width="0.35"/>
<polygon points="326.20,69.53 324.67,69.76 327.02,70.10" fill="#ee301e" stroke="#ee301e" stroke-width="0.35"/>
<polygon points="319.49,73.59 323.04,72.92 323.04,64.70" fill="#414b55" stroke="#414b55" stroke-width="0.35"/>
<polygon points="323.04,72.92 325.29,63.39 323.04,64.70" fill="#414b55" stroke="#414b55" stroke-width="0.35"/>
<polygon points="323.08,64.41 325.21,63.17 325.21,60.43" fill="#55595e" stroke="#55595e" stroke-width="0.35"/>
<polygon points="319.84,84.17 323.47,83.48 323.47,74.81" fill="#326e8a" stroke="#326e8a" stroke-width="0.35"/>
<polygon points="323.47,83.48 325.77,73.47 323.47,74.81" fill="#326e8a" stroke="#326e8a" stroke-width="0.35"/>
<polygon points="315.59,73.45 319.49,73.59 319.49,65.37" fill="#4b5662" stroke="#4b5662" stroke-width="0.35"/>
<polygon points="315.59,73.45 319.49,65.37 315.59,65.23" fill="#4b5662" stroke="#4b5662" stroke-width="0.35"/>
<polygon points="323.08,64.41 325.21,60.43 323.08,61.67" fill="#55595e" stroke="#55595e" stroke-width="0.35"/>
<polygon points="319.49,73.59 323.04,64.70 319.49,65.37" fill="#414b55" stroke="#414b55" stroke-width="0.35"/>
<polygon points="315.85,84.03 319.84,84.17 319.84,75.49" fill="#397e9e" stroke="#397e9e" stroke-width="0.35"/>
<polygon points="315.85,84.03 319.84,75.49 315.85,75.35" fill="#397e9e" stroke="#397e9e" stroke-width="0.35"/>
<polygon points="319.84,84.17 323.47,74.81 319.84,75.49" fill="#326e8a" stroke="#326e8a" stroke-width="0.35"/>
<polygon points="319.70,65.05 323.08,64.41 323.08,61.67" fill="#55595e" stroke="#55595e" stroke-width="0.35"/>
<polygon points="315.99,64.92 319.70,65.05 319.70,62.31" fill="#61666c" stroke="#61666c" stroke-width="0.35"/>
<polygon points="315.99,64.92 319.70,62.31 315.99,62.18" fill="#61666c" stroke="#61666c" stroke-width="0.35"/>
<polygon points="319.70,65.05 323.08,61.67 319.70,62.31" fill="#55595e" stroke="#55595e" stroke-width="0.35"/>
</svg>
